<svg width="213" height="73" viewBox="0 0 213 73" fill="none" xmlns="http://www.w3.org/2000/svg">
<path d="M67.3692 44V27.2H69.5292V34.52H78.5292V27.2H80.6892V44H78.5292V36.56H69.5292V44H67.3692ZM85.2455 42.464C84.1255 41.264 83.5655 39.776 83.5655 38C83.5655 36.224 84.1255 34.744 85.2455 33.56C86.3655 32.36 87.7255 31.76 89.3255 31.76C90.3335 31.76 91.1815 31.952 91.8695 32.336C92.5735 32.72 93.0855 33.136 93.4055 33.584L93.6215 33.944H93.6455V32H95.5655V44H93.6455V42.08H93.6215L93.4055 42.416C93.1175 42.848 92.6215 43.264 91.9175 43.664C91.2135 44.048 90.3495 44.24 89.3255 44.24C87.7255 44.24 86.3655 43.648 85.2455 42.464ZM86.6375 34.808C85.8695 35.64 85.4855 36.704 85.4855 38C85.4855 39.296 85.8695 40.36 86.6375 41.192C87.4215 42.024 88.3975 42.44 89.5655 42.44C90.7335 42.44 91.7015 42.024 92.4695 41.192C93.2535 40.36 93.6455 39.296 93.6455 38C93.6455 36.704 93.2535 35.64 92.4695 34.808C91.7015 33.976 90.7335 33.56 89.5655 33.56C88.3975 33.56 87.4215 33.976 86.6375 34.808ZM98.5739 36.32V32H100.494V36.2C100.494 37 100.726 37.624 101.19 38.072C101.67 38.504 102.358 38.72 103.254 38.72C104.198 38.72 105.03 38.584 105.75 38.312C106.086 38.2 106.374 38.056 106.614 37.88V32H108.534V44H106.614V39.56C106.294 39.768 105.998 39.928 105.726 40.04C105.022 40.36 104.158 40.52 103.134 40.52C101.694 40.52 100.574 40.144 99.7739 39.392C98.9739 38.64 98.5739 37.616 98.5739 36.32ZM112.855 42.464C111.735 41.264 111.175 39.776 111.175 38C111.175 36.224 111.735 34.744 112.855 33.56C113.975 32.36 115.335 31.76 116.935 31.76C117.943 31.76 118.791 31.952 119.479 32.336C120.183 32.72 120.695 33.136 121.015 33.584L121.231 33.944H121.255V32H123.175V44H121.255V42.08H121.231L121.015 42.416C120.727 42.848 120.231 43.264 119.527 43.664C118.823 44.048 117.959 44.24 116.935 44.24C115.335 44.24 113.975 43.648 112.855 42.464ZM114.247 34.808C113.479 35.64 113.095 36.704 113.095 38C113.095 39.296 113.479 40.36 114.247 41.192C115.031 42.024 116.007 42.44 117.175 42.44C118.343 42.44 119.311 42.024 120.079 41.192C120.863 40.36 121.255 39.296 121.255 38C121.255 36.704 120.863 35.64 120.079 34.808C119.311 33.976 118.343 33.56 117.175 33.56C116.007 33.56 115.031 33.976 114.247 34.808ZM124.983 33.8V32H135.303V33.8H131.103V44H129.183V33.8H124.983ZM137.114 44V32H139.034V36.08H142.394C143.738 36.08 144.834 36.464 145.682 37.232C146.53 37.984 146.954 38.92 146.954 40.04C146.954 41.16 146.53 42.104 145.682 42.872C144.834 43.624 143.738 44 142.394 44H137.114ZM139.034 42.2H142.394C143.226 42.2 143.874 42 144.338 41.6C144.802 41.2 145.034 40.68 145.034 40.04C145.034 39.4 144.802 38.88 144.338 38.48C143.874 38.08 143.226 37.88 142.394 37.88H139.034V42.2Z" fill="black"/>
<rect x="1" y="72" width="71" height="211" rx="16" transform="rotate(-90 1 72)" stroke="black" stroke-width="2"/>
</svg>
